<svg width="119" height="134" viewBox="0 0 119 134" fill="none" xmlns="http://www.w3.org/2000/svg">
<path d="M71.1127 82.3132L55.5283 97.6886C55.2942 97.9196 55.0417 98.1318 54.7711 98.3185C44.2785 105.558 31.3286 108.233 18.8422 96.2717C6.19455 84.1554 12.054 66.9976 20.6635 56.7683L44.7952 33.8691C54.015 27.0353 71.6875 22.0673 83.5883 35.5113C93.3278 46.5137 93.9884 71.2976 92.334 88.9248C91.899 93.5591 86.5015 95.5382 82.9751 92.5077L71.1127 82.3132ZM71.1127 82.3132L83.5883 68.9934" stroke="#DD9949" stroke-width="6"/>
<path d="M23.979 44.1617L16.4794 51.0692L12.5906 41.5478L11.5577 37.7721L11.1642 32.9172L11.4035 28.9325L12.5832 24.4235L13.9682 20.658L15.3121 18.5508L16.6253 16.6835L18.2599 14.542L22.8561 9.51218L28.4202 5.19494C29.2787 8.32192 31.0244 14.8205 31.1394 15.799C31.283 17.0222 32.5021 23.5146 32.4051 26.5745C32.3299 28.9455 31.2631 33.9135 29.9499 35.7809L27.2688 40.0535L23.979 44.1617Z" stroke="#779955" stroke-width="6"/>
<line y1="-3" x2="30.4374" y2="-3" transform="matrix(0.719911 -0.694067 0.692736 0.721191 62.6516 59.5164)" stroke="#DD9949" stroke-width="6"/>
<line y1="-3" x2="21.8747" y2="-3" transform="matrix(0.719911 -0.694067 0.692736 0.721191 43.8926 87.5117)" stroke="#DD9949" stroke-width="6"/>
<line y1="-3" x2="21.8747" y2="-3" transform="matrix(0.719911 -0.694067 0.692736 0.721191 17.6663 95.1751)" stroke="#DD9949" stroke-width="6"/>
<line y1="-3" x2="30.4374" y2="-3" transform="matrix(0.719911 -0.694067 0.692736 0.721191 40.7964 59.5164)" stroke="#DD9949" stroke-width="6"/>
</svg>
